<svg width="162" height="302" viewBox="0 0 162 302" fill="none" xmlns="http://www.w3.org/2000/svg">
<path d="M161.43 113.078V285.203C161.43 289.483 159.73 293.587 156.703 296.613C153.677 299.64 149.573 301.34 145.293 301.34C141.013 301.34 136.909 299.64 133.883 296.613C130.857 293.587 129.156 289.483 129.156 285.203V215.293H16.1994C13.6186 215.293 11.0755 214.674 8.78347 213.488C6.49143 212.302 4.51728 210.583 3.02665 208.476C1.53602 206.37 0.572387 203.936 0.216597 201.38C-0.139193 198.824 0.123243 196.22 0.98188 193.786L65.5248 10.9032C66.9491 6.86724 69.9184 3.56242 73.7793 1.71573C75.6911 0.801338 77.7642 0.272452 79.8804 0.159265C81.9965 0.0460784 84.1143 0.350807 86.1127 1.05605C88.111 1.7613 89.9509 2.85325 91.5273 4.26957C93.1037 5.68588 94.3857 7.39882 95.3001 9.31057C96.2145 11.2223 96.7434 13.2955 96.8566 15.4116C96.9697 17.5278 96.665 19.6455 95.9598 21.6439L39.0059 183.02H129.156V113.078C129.156 108.798 130.857 104.694 133.883 101.668C136.909 98.6415 141.013 96.9414 145.293 96.9414C149.573 96.9414 153.677 98.6415 156.703 101.668C159.73 104.694 161.43 108.798 161.43 113.078Z" fill="#7BA05B"/>
</svg>
