<svg width="44" height="45" viewBox="0 0 44 45" fill="none" xmlns="http://www.w3.org/2000/svg">
<g filter="url(#filter0_d_61_435)">
<path d="M21.9998 36.3333C12.7951 36.3333 5.33317 28.8714 5.33317 19.6667C5.33317 10.4619 12.7951 3 21.9998 3C31.2046 3 38.6665 10.4619 38.6665 19.6667C38.6665 28.8714 31.2046 36.3333 21.9998 36.3333Z" fill="#7BA05B"/>
<path d="M21.9998 36.3333C12.7951 36.3333 5.33317 28.8714 5.33317 19.6667C5.33317 10.4619 12.7951 3 21.9998 3C31.2046 3 38.6665 10.4619 38.6665 19.6667C38.6665 28.8714 31.2046 36.3333 21.9998 36.3333Z" stroke="#7BA05B" stroke-linecap="round" stroke-linejoin="round"/>
</g>
<path d="M22 26.6666L15.3333 19.9999L22 13.3333" stroke="white" stroke-linecap="round" stroke-linejoin="round"/>
<path d="M28.6665 20H15.3332" stroke="white" stroke-linecap="round" stroke-linejoin="round"/>
<defs>
<filter id="filter0_d_61_435" x="0.833008" y="2.5" width="42.3335" height="42.3333" filterUnits="userSpaceOnUse" color-interpolation-filters="sRGB">
<feFlood flood-opacity="0" result="BackgroundImageFix"/>
<feColorMatrix in="SourceAlpha" type="matrix" values="0 0 0 0 0 0 0 0 0 0 0 0 0 0 0 0 0 0 127 0" result="hardAlpha"/>
<feOffset dy="4"/>
<feGaussianBlur stdDeviation="2"/>
<feComposite in2="hardAlpha" operator="out"/>
<feColorMatrix type="matrix" values="0 0 0 0 0 0 0 0 0 0 0 0 0 0 0 0 0 0 0.1 0"/>
<feBlend mode="normal" in2="BackgroundImageFix" result="effect1_dropShadow_61_435"/>
<feBlend mode="normal" in="SourceGraphic" in2="effect1_dropShadow_61_435" result="shape"/>
</filter>
</defs>
</svg>
