<svg width="44" height="45" viewBox="0 0 44 45" fill="none" xmlns="http://www.w3.org/2000/svg">
<g filter="url(#filter0_d_13_350)">
<path d="M22.0002 36.3333C31.2049 36.3333 38.6668 28.8714 38.6668 19.6667C38.6668 10.4619 31.2049 3 22.0002 3C12.7954 3 5.3335 10.4619 5.3335 19.6667C5.3335 28.8714 12.7954 36.3333 22.0002 36.3333Z" fill="#7BA05B"/>
<path d="M22.0002 36.3333C31.2049 36.3333 38.6668 28.8714 38.6668 19.6667C38.6668 10.4619 31.2049 3 22.0002 3C12.7954 3 5.3335 10.4619 5.3335 19.6667C5.3335 28.8714 12.7954 36.3333 22.0002 36.3333Z" stroke="#7BA05B" stroke-linecap="round" stroke-linejoin="round"/>
</g>
<path d="M22 26.6666L28.6667 19.9999L22 13.3333" stroke="white" stroke-linecap="round" stroke-linejoin="round"/>
<path d="M15.3335 20H28.6668" stroke="white" stroke-linecap="round" stroke-linejoin="round"/>
<defs>
<filter id="filter0_d_13_350" x="0.833496" y="2.5" width="42.3335" height="42.3333" filterUnits="userSpaceOnUse" color-interpolation-filters="sRGB">
<feFlood flood-opacity="0" result="BackgroundImageFix"/>
<feColorMatrix in="SourceAlpha" type="matrix" values="0 0 0 0 0 0 0 0 0 0 0 0 0 0 0 0 0 0 127 0" result="hardAlpha"/>
<feOffset dy="4"/>
<feGaussianBlur stdDeviation="2"/>
<feComposite in2="hardAlpha" operator="out"/>
<feColorMatrix type="matrix" values="0 0 0 0 0 0 0 0 0 0 0 0 0 0 0 0 0 0 0.1 0"/>
<feBlend mode="normal" in2="BackgroundImageFix" result="effect1_dropShadow_13_350"/>
<feBlend mode="normal" in="SourceGraphic" in2="effect1_dropShadow_13_350" result="shape"/>
</filter>
</defs>
</svg>
