<svg width="19" height="19" viewBox="0 0 19 19" fill="none" xmlns="http://www.w3.org/2000/svg">
<path d="M16.1301 3.9574C15.747 3.57416 15.2922 3.27014 14.7916 3.06272C14.291 2.8553 13.7545 2.74854 13.2126 2.74854C12.6707 2.74854 12.1342 2.8553 11.6336 3.06272C11.133 3.27014 10.6782 3.57416 10.2951 3.9574L9.50009 4.7524L8.70509 3.9574C7.93132 3.18364 6.88186 2.74894 5.78759 2.74894C4.69331 2.74894 3.64386 3.18364 2.87009 3.9574C2.09632 4.73117 1.66162 5.78063 1.66162 6.8749C1.66162 7.96918 2.09632 9.01864 2.87009 9.7924L3.66509 10.5874L9.50009 16.4224L15.3351 10.5874L16.1301 9.7924C16.5133 9.40934 16.8174 8.95451 17.0248 8.45392C17.2322 7.95333 17.339 7.41677 17.339 6.8749C17.339 6.33304 17.2322 5.79648 17.0248 5.29589C16.8174 4.79529 16.5133 4.34047 16.1301 3.9574Z" fill="#7BA05B"/>
</svg>
