<svg width="19" height="19" xmlns="http://www.w3.org/2000/svg" fill="none">

 <g>
  <title>Layer 1</title>
  <path id="svg_1" fill="#ffffff" d="m16.1301,3.9574c-0.3831,-0.38324 -0.8379,-0.68726 -1.3385,-0.89468c-0.5006,-0.20742 -1.0371,-0.31418 -1.579,-0.31418c-0.5419,0 -1.0784,0.10676 -1.579,0.31418c-0.5006,0.20742 -0.9554,0.51144 -1.3385,0.89468l-0.79501,0.795l-0.795,-0.795c-0.77377,-0.77376 -1.82323,-1.20846 -2.9175,-1.20846c-1.09428,0 -2.14373,0.4347 -2.9175,1.20846c-0.77377,0.77377 -1.20847,1.82323 -1.20847,2.9175c0,1.09428 0.4347,2.14374 1.20847,2.9175l0.795,0.795l5.835,5.835l5.83501,-5.835l0.795,-0.795c0.3832,-0.38306 0.6873,-0.83789 0.8947,-1.33848c0.2074,-0.50059 0.3142,-1.03715 0.3142,-1.57902c0,-0.54186 -0.1068,-1.07842 -0.3142,-1.57901c-0.2074,-0.5006 -0.5115,-0.95542 -0.8947,-1.33849z"/>
 </g>
</svg>